<?xml version="1.0" encoding="utf-8"?>
<!-- Generator: Adobe Illustrator 19.2.1, SVG Export Plug-In . SVG Version: 6.00 Build 0)  -->
<svg version="1.1" id="layer" xmlns="http://www.w3.org/2000/svg" xmlns:xlink="http://www.w3.org/1999/xlink" x="0px" y="0px"
     viewBox="0 0 652 652" style="enable-background:new 0 0 652 652;" xml:space="preserve">
<style type="text/css">
	.st0{fill:#ffffff;}
</style>
    <g>
	<path class="st0" d="M614.8,264.3v53.8h10c0,0-2.7-3.9-2.3-5c0.3-1.1,0-34.8,0-34.8l3-2.9C625.5,275.4,615.1,266.5,614.8,264.3"/>
        <path class="st0" d="M466.9,309.5h-23.4l0.3-1.4h23.1V309.5z M468.5,299.5c-4.3,0-21.1-0.4-21.1-0.4l-4-5l-1-29.4l-9.7,9.7l1.3,2.9
		l0.3,32.3h-6.7l-0.3,8.6h47.2l0.3-13.3C474.9,304.8,472.9,299.5,468.5,299.5"/>
        <path class="st0" d="M566.6,271.8c0,2.4-2.1,4.3-4.7,4.3c-2.6,0-4.7-1.9-4.7-4.3c0-2.4,2.1-4.3,4.7-4.3
		C564.5,267.5,566.6,269.5,566.6,271.8"/>
        <path class="st0" d="M489.3,309.5c0,0,2.3-5,4.3-4.7l0.3,4.7H489.3z M516.7,308h23.1v1.4h-23.4L516.7,308z M611.4,318.1l-0.7-1.8
		l-0.3-52.4l-11.7,11.8l2,0.7l0.3,32.3l-2.4,0.7c0,0-0.7-8.2-10-10h-16.1c0,0-6.4-3.6-6.7-6.8c-0.3-3.2-4.7,8.2-14.7,15.4h39.2v1.4
		h-41.8l-1-5c0,0-4.7-6.1-6-6.1h-22.4l-2.3-3.6l-0.7-17.6l2.3-2.2l-11.7-11.5l0.3,45.5h-4.7l-0.7-24.4c0,0-19.8,19-20.1,21.2
		c-0.3,2.1-0.7,12.2-0.7,12.2l11.7,0.4l0.3,4c0,0-3,6.8-15.7,2.1c0.7,11.1,26.4,12.9,24.4-6.5H611.4z"/>
        <path class="st0" d="M406.6,263.9v53.8h10c0,0-2.7-3.9-2.3-5c0.3-1.1,0-34.8,0-34.8l3-2.9C417.3,275.1,406.9,266.1,406.6,263.9"/>
        <path class="st0" d="M359.4,309.1h-5c0,0,3.3-5.4,5-5V309.1z M401.6,315.6l-0.7-51.3l-10.4,10.4l2,1.8v32.6l-5-0.4V284l-10.4,11.5
		l1.7,1.4l-0.7,12.5l-9-0.7l-0.3-24.4l-21.4,21.9l-0.4,11.8h11.7l0.3,5c0,0-8,8.3-15.7-0.7c-2.7,10.4,21.4,19.4,25.5-4.7h33.8
		L401.6,315.6z"/>
        <path class="st0" d="M325.2,284.7c0.1-0.1,0.1-0.2,0.1-0.3C325.2,284.3,325.2,284.4,325.2,284.7"/>
        <path class="st0" d="M222.8,301.6c0,0,3.3-5.4,5-5v5H222.8z M225.9,318.1l117.5,0.4l-1.3-1.8l0.3-31.6c0.3,1.8-11,9.7-11,9.7l2,2.2
		v12.2h-8c0,0-0.3-21.6-0.1-24.4c-0.9,1.9-9.6,10.1-9.6,10.1l1.3,2.9v11.8h-6.7c0,0,0.3-13.6,0-11.8c-0.3,1.8-8.4,5-8.4,5v6.1h-6
		v-11.1c0,1.8-8.7,4.3-8.7,4.3v6.8h-32.5v-23.7l-10,10.4l2.3,2.1v11.1h-11l-1-33l-20.1,21.5v12.2h13.1v5L225.9,318.1z"/>
        <path class="st0" d="M387.9,272.6c0,2.4-2.1,4.3-4.7,4.3c-2.6,0-4.7-1.9-4.7-4.3c0-2.4,2.1-4.3,4.7-4.3
		C385.7,268.2,387.9,270.2,387.9,272.6"/>
        <path class="st0" d="M377.1,272.2c0,2.4-2.1,4.3-4.7,4.3c-2.6,0-4.7-1.9-4.7-4.3c0-2.4,2.1-4.3,4.7-4.3
		C375,267.9,377.1,269.8,377.1,272.2"/>
        <path class="st0" d="M342.7,272.6c0,2.4-2.1,4.3-4.7,4.3c-2.6,0-4.7-1.9-4.7-4.3c0-2.4,2.1-4.3,4.7-4.3
		C340.6,268.2,342.7,270.2,342.7,272.6"/>
        <path class="st0" d="M261.3,329.2c0,2.4-2.1,4.3-4.7,4.3c-2.6,0-4.7-1.9-4.7-4.3c0-2.4,2.1-4.3,4.7-4.3
		C259.2,324.9,261.3,326.8,261.3,329.2"/>
        <path class="st0" d="M250.3,329.2c0,2.4-2.1,4.3-4.7,4.3c-2.6,0-4.7-1.9-4.7-4.3c0-2.4,2.1-4.3,4.7-4.3
		C248.2,324.9,250.3,326.8,250.3,329.2"/>
        <path class="st0" d="M233.9,272.2c0,2.4-2.1,4.3-4.7,4.3c-2.6,0-4.7-1.9-4.7-4.3c0-2.4,2.1-4.3,4.7-4.3
		C231.8,267.9,233.9,269.8,233.9,272.2"/>
        <path class="st0" d="M222.9,272.2c0,2.4-2.1,4.3-4.7,4.3c-2.6,0-4.7-1.9-4.7-4.3c0-2.4,2.1-4.3,4.7-4.3
		C220.7,267.9,222.9,269.8,222.9,272.2"/>
</g>
    <polygon class="st0" points="326.7,357.2 311.1,357.3 311.1,387.8 300.5,387.8 300.5,357.3 289.8,357.3 289.8,347.2 326.7,347.2 "/>
    <g>
	<path class="st0" d="M326.7,347.2h10.6V372c0,2.2,0.5,3.9,1.5,5.2c1,1.2,2.5,1.9,4.3,1.9c1.8,0,3.2-0.6,4.3-1.8
		c1-1.2,1.5-3,1.5-5.2v-24.8h10.6v24.2c0,2.4-0.3,4.7-0.9,6.8c-0.6,2.1-1.6,4-3,5.6c-1.4,1.6-2.8,2.7-4.2,3.4
		c-2.1,0.9-4.5,1.4-7.4,1.4c-1.7,0-3.5-0.1-5.4-0.4c-2-0.3-3.6-0.8-4.9-1.6c-1.3-0.8-2.5-2-3.6-3.5c-1.1-1.5-1.8-3.1-2.2-4.7
		c-0.7-2.6-1-4.9-1-6.9v-14.2V347.2z"/>
</g>
    <polygon class="st0" points="366.5,347.2 376.4,347.2 389.2,369.7 389.2,347.2 399.2,347.2 399.2,387.8 389.2,387.8 376.4,365.5
	376.4,387.8 366.5,387.8 "/>
    <rect x="406.6" y="347.2" class="st0" width="10.6" height="40.6"/>
    <g>
	<path class="st0" d="M422.9,374.4l10.1-0.7c0.2,1.9,0.7,3.4,1.3,4.4c1.1,1.6,2.7,2.4,4.7,2.4c1.5,0,2.7-0.4,3.5-1.3
		c0.8-0.8,1.2-1.8,1.2-2.9c0-1.1-0.4-2-1.2-2.8c-0.8-0.8-2.6-1.6-5.4-2.3c-4.6-1.2-8-2.9-9.9-4.9c-2-2.1-3-4.7-3-7.8
		c0-2.1,0.5-4.1,1.5-5.9c1-1.9,2.6-3.3,4.6-4.4c2.1-1.1,4.9-1.6,8.4-1.6c4.4,0,7.7,1,10,2.9c2.3,1.9,3.7,5,4.1,9.2l-10,0.7
		c-0.3-1.8-0.8-3.2-1.7-4c-0.9-0.8-2-1.3-3.5-1.3c-1.2,0-2.2,0.3-2.8,0.9c-0.6,0.6-0.9,1.4-0.9,2.3c0,0.7,0.3,1.2,0.8,1.7
		c0.5,0.5,1.7,1,3.6,1.5c4.6,1.2,7.9,2.4,9.9,3.6c2,1.2,3.5,2.7,4.4,4.5c0.9,1.8,1.4,3.8,1.4,6c0,2.6-0.6,5-1.8,7.2
		c-1.2,2.2-2.9,3.9-5.1,5c-2.2,1.1-4.9,1.7-8.2,1.7c-5.8,0-9.9-1.3-12.1-4C424.5,381.9,423.2,378.5,422.9,374.4"/>
</g>
    <path class="st0" d="M478.1,372.3l-3.7-14.6l-3.7,14.6H478.1z M480.3,381.1h-12l-1.7,6.7h-10.8l12.8-40.6h11.6l12.8,40.6H482
	L480.3,381.1z"/>
    <rect x="496.9" y="347.2" class="st0" width="10.6" height="40.6"/>
    <g>
	<path class="st0" d="M525.8,363.7h4.4c0.5,0,1.4-0.2,2.8-0.6c0.7-0.2,1.3-0.6,1.7-1.3c0.4-0.7,0.7-1.5,0.7-2.4c0-1.3-0.3-2.3-1-3
		c-0.7-0.7-2-1-3.9-1h-4.6V363.7z M515.2,387.8v-40.6h17.6c3.3,0,5.7,0.3,7.5,1c1.7,0.7,3.1,1.9,4.2,3.7c1.1,1.8,1.6,4,1.6,6.6
		c0,2.3-0.4,4.2-1.2,5.8c-0.8,1.6-1.9,3-3.3,4c-0.9,0.6-2.1,1.2-3.7,1.6c1.3,0.5,2.2,1,2.7,1.5c0.4,0.3,0.9,1,1.7,2.1
		c0.7,1.1,1.2,1.9,1.5,2.5l5.1,11.8h-11.9l-5.6-12.4c-0.7-1.6-1.3-2.6-1.9-3.1c-0.7-0.6-1.6-0.9-2.6-0.9h-0.9v16.5H515.2z"/>
</g>
    <polygon class="st0" points="78.7,268 75.2,271.4 126.3,271.4 122.9,268 "/>
    <polygon class="st0" points="57.8,273.1 55.3,275.6 130.5,275.6 128,273.1 "/>
    <polygon class="st0" points="55.2,277.3 58.6,280.8 94.1,280.8 97.6,277.3 "/>
    <g>
	<path class="st0" d="M139.9,285l-2.5-2.5H69.4c0.6,0.4,2.5,2.5,2.5,2.5H139.9z"/>
</g>
    <polygon class="st0" points="28.9,343 25.5,346.5 161.4,346.5 164.9,343 "/>
    <polygon class="st0" points="26.2,348.2 28.7,350.7 205.6,350.7 203.1,348.2 "/>
    <g>
	<path class="st0" d="M226.3,374.6l-3.4-3.4h-61.1c4.5,2.7,8.5,3.4,8.5,3.4H226.3z"/>
</g>
    <polygon class="st0" points="30.4,352.4 33.9,355.8 43.8,355.8 40.4,352.4 "/>
    <polygon class="st0" points="39.8,361.8 43.2,365.2 53.2,365.2 49.7,361.8 "/>
    <polygon class="st0" points="35.6,357.5 38.1,360.1 48,360.1 45.5,357.5 "/>
    <polygon class="st0" points="45,366.9 47.5,369.5 57.4,369.5 54.9,366.9 "/>
    <polygon class="st0" points="49.2,371.2 52.6,374.6 62.5,374.6 59.1,371.2 "/>
    <polygon class="st0" points="54.4,376.3 56.9,378.9 66.8,378.9 64.3,376.3 "/>
    <polygon class="st0" points="58.6,380.6 62,384 66.8,384 66.8,380.6 "/>
    <polygon class="st0" points="63.7,385.7 66.3,388.2 66.8,388.7 66.8,385.7 "/>
    <polygon class="st0" points="132.4,333.6 129,337.1 153.5,337.1 150.1,333.6 "/>
    <g>
	<path class="st0" d="M70.3,294.4c0.8-0.9,1.5-1.7,2-2.5h74.4l2.5,2.5H70.3z"/>
        <path class="st0" d="M63.6,301.2c-0.7,0.8-1.5,1.7-2.2,2.6h97.2l-2.5-2.6H63.6z"/>
        <path class="st0" d="M55.6,313.2c0.4-0.9,0.8-1.7,1.2-2.5h108.7l2.5,2.5H55.6z"/>
        <path class="st0" d="M53.5,320c-0.1,0.8-0.3,1.7-0.4,2.5h124.3l-2.5-2.5H53.5z"/>
        <path class="st0" d="M53,329.4c0.1,0.8,0.1,1.7,0.3,2.5h133.5l-2.6-2.5H53z"/>
        <path class="st0" d="M55.4,341.3c-0.3-0.9-0.5-1.7-0.8-2.5l139,0l2.5,2.5H55.4z"/>
        <path class="st0" d="M87.9,286.7c-0.9,1-2,2.1-3.1,3.4H72.9c0.2-0.8-0.1-2.9-0.3-3.4H87.9z"/>
        <path class="st0" d="M79.9,296.1c-0.8,1.1-1.6,2.2-2.3,3.4H65.2c1.2-1.2,2.3-2.4,3.4-3.4H79.9z"/>
        <path class="st0" d="M73.6,308.9c0.2-1.2,0.6-2.3,1-3.4H60.1c-0.8,1.1-1.6,2.2-2.3,3.4H73.6z"/>
        <path class="st0" d="M73.2,314.9c0.1,1.1,0.3,2.3,0.7,3.4h-20c0.3-1.2,0.6-2.3,1.1-3.4H73.2z"/>
        <path class="st0" d="M79.6,327.7c-1.1-1.2-2-2.3-2.8-3.4H53c-0.1,1.1-0.1,2.2,0,3.4H79.6z"/>
        <path class="st0" d="M86.8,333.6c1.7,1.2,3.6,2.3,5.7,3.4H54.3c-0.3-1.2-0.5-2.3-0.7-3.4H86.8z"/>
        <path class="st0" d="M64.9,360.9c-1.1-2.6-2.1-5.4-3.1-8.4h107l3.4,8.4L64.9,360.9z"/>
        <path class="st0" d="M70,360.1c-1.1-0.7-2.2-1.6-3.3-2.5h145.8l2.5,2.5H70z"/>
        <path class="st0" d="M80.5,365.2c-2.4-0.8-5.1-1.9-7.9-3.4h39.4c0,0-6.1,3.4-7.5,3.4L80.5,365.2z"/>
        <path class="st0" d="M153.6,365.2c-1.4-1.3-2.4-2.5-2.9-3.4h27.5l3.4,3.4H153.6z"/>
        <path class="st0" d="M159.1,369.5c-1.2-0.8-2.5-1.7-3.5-2.6h66.3l2.5,2.6H159.1z"/>
        <path class="st0" d="M213,378.9c-3.2-1.1-6.4-2-9.2-2.6h27.4l2.6,2.6H213z"/>
        <path class="st0" d="M217.7,380.6c2.9,1.1,5.7,2.3,8.2,3.4h9.8l-3.4-3.4H217.7z"/>
        <path class="st0" d="M229.5,385.7c1.7,0.9,3.3,1.8,4.5,2.5l9.1,0l-2.5-2.6H229.5z"/>
</g>
</svg>
